<svg xmlns="http://www.w3.org/2000/svg" viewBox="0 0 512 512">
<defs><linearGradient id="bg" x1="0" y1="0" x2="1" y2="1"><stop stop-color="#06101d"/><stop offset=".62" stop-color="#0d2a52"/><stop offset="1" stop-color="#2563eb"/></linearGradient><linearGradient id="or" x1="0" y1="0" x2="1" y2="1"><stop stop-color="#fb923c"/><stop offset="1" stop-color="#f97316"/></linearGradient></defs>
<rect width="512" height="512" rx="112" fill="url(#bg)"/>
<path d="M256 58 393 108v118c0 95-51 169-137 223-86-54-137-128-137-223V108z" fill="#07182c" stroke="#60a5fa" stroke-width="12"/>
<path d="M256 78 374 121v103c0 78-39 141-118 192-79-51-118-114-118-192V121z" fill="none" stroke="#f97316" stroke-width="7" opacity=".95"/>
<circle cx="256" cy="169" r="51" fill="#0b2442" stroke="#e2e8f0" stroke-width="7"/>
<path d="M256 137l15 11-6 18-18 0-6-18zM221 170l16-7 13 13-6 17-20 1zM291 170l-16-7-13 13 6 17 20 1zM238 207l8-16h20l8 16-18 13z" fill="#f8fafc"/>
<text x="256" y="302" text-anchor="middle" font-family="Arial,Helvetica,sans-serif" font-size="88" font-weight="900" fill="#fff">PC</text>
<rect x="162" y="326" width="188" height="13" rx="7" fill="url(#or)"/>
<text x="256" y="376" text-anchor="middle" font-family="Arial,Helvetica,sans-serif" font-size="34" font-weight="900" letter-spacing="3" fill="#dbeafe">PROCOACH</text>
<text x="256" y="408" text-anchor="middle" font-family="Arial,Helvetica,sans-serif" font-size="20" font-weight="700" letter-spacing="4" fill="#93c5fd">TREINADOR</text>
</svg>